HIERARCHY
ROOT SpineBase
{
  OFFSET 0.000000 0.000000 0.000000
  CHANNELS 6 Xposition Yposition Zposition Zrotation Xrotation Yrotation
  JOINT SpineMid
  {
    OFFSET 0.000000 31.332287 0.000000
    CHANNELS 3 Zrotation Xrotation Yrotation
    JOINT SpineShoulder
    {
      OFFSET -0.885453 23.043411 -0.729785
      CHANNELS 3 Zrotation Xrotation Yrotation
      JOINT Neck
      {
        OFFSET -0.620992 7.629180 -0.685635
        CHANNELS 3 Zrotation Xrotation Yrotation
        JOINT Head
        {
          OFFSET -2.862445 8.831141 3.974226
          CHANNELS 3 Zrotation Xrotation Yrotation
          End Site
          {
            OFFSET 0 0 0
          }
        }
      }
      JOINT ShoulderLeft
      {
        OFFSET -9.802651 -7.748423 -13.069305
        CHANNELS 3 Zrotation Xrotation Yrotation
        JOINT ElbowLeft
        {
          OFFSET 1.657934 -27.006851 -3.411081
          CHANNELS 3 Zrotation Xrotation Yrotation
          JOINT WristLeft
          {
            OFFSET -1.588930 -8.400592 24.284149
            CHANNELS 3 Zrotation Xrotation Yrotation
            JOINT HandLeft
            {
              OFFSET 2.402056 -8.639646 0.998672
              CHANNELS 3 Zrotation Xrotation Yrotation
              JOINT HandTipLeft
              {
                OFFSET -0.546562 -0.314978 0.001404
                CHANNELS 3 Zrotation Xrotation Yrotation
                End Site
                {
                  OFFSET 0 0 0
                }
              }
              JOINT ThumbLeft
              {
                OFFSET -0.224981 0.825226 -2.802746
                CHANNELS 3 Zrotation Xrotation Yrotation
                End Site
                {
                  OFFSET 0 0 0
                }
              }
            }
          }
        }
      }
      JOINT ShoulderRight
      {
        OFFSET 0.493955 -4.757530 -10.763863
        CHANNELS 3 Zrotation Xrotation Yrotation
        JOINT ElbowRight
        {
          OFFSET -6.840802 -23.567100 -2.136969
          CHANNELS 3 Zrotation Xrotation Yrotation
          JOINT WristRight
          {
            OFFSET -4.738390 -20.333698 2.909751
            CHANNELS 3 Zrotation Xrotation Yrotation
            JOINT HandRight
            {
              OFFSET -0.568998 -9.598642 0.905850
              CHANNELS 3 Zrotation Xrotation Yrotation
              JOINT HandTipRight
              {
                OFFSET -6.434688 -6.916892 3.054021
                CHANNELS 3 Zrotation Xrotation Yrotation
                End Site
                {
                  OFFSET 0 0 0
                }
              }
              JOINT ThumbRight
              {
                OFFSET 3.994203 -1.622118 -2.800279
                CHANNELS 3 Zrotation Xrotation Yrotation
                End Site
                {
                  OFFSET 0 0 0
                }
              }
            }
          }
        }
      }
    }
  }
  JOINT HipLeft
  {
    OFFSET -5.203872 0.804181 -0.542877
    CHANNELS 3 Zrotation Xrotation Yrotation
    JOINT KneeLeft
    {
      OFFSET 16.038112 -42.656224 2.219800
      CHANNELS 3 Zrotation Xrotation Yrotation
      JOINT AnkleLeft
      {
        OFFSET 12.017475 -37.416020 11.148248
        CHANNELS 3 Zrotation Xrotation Yrotation
        JOINT FootLeft
        {
          OFFSET -7.445815 -0.501466 -9.200534
          CHANNELS 3 Zrotation Xrotation Yrotation
          End Site
          {
            OFFSET 0 0 0
          }
        }
      }
    }
  }
  JOINT HipRight
  {
    OFFSET 3.919336 1.018779 -6.714592
    CHANNELS 3 Zrotation Xrotation Yrotation
    JOINT KneeRight
    {
      OFFSET 1.871907 -44.656364 4.890382
      CHANNELS 3 Zrotation Xrotation Yrotation
      JOINT AnkleRight
      {
        OFFSET 6.557057 -33.532306 2.470353
        CHANNELS 3 Zrotation Xrotation Yrotation
        JOINT FootRight
        {
          OFFSET -4.250046 -4.446620 -1.980101
          CHANNELS 3 Zrotation Xrotation Yrotation
          End Site
          {
            OFFSET 0 0 0
          }
        }
      }
    }
  }
}
MOTION
Frames: 8
Frame Time: 0.033333
56.013270 81.632885 305.086602 -0.000000 0.000000 34.077770 0.000000 0.000000 -34.077770 -0.000000 0.000000 0.000000 -0.000000 0.000000 0.000000 0.000000 0.000000 0.000000 -0.000000 0.000000 0.000000 -0.000000 0.000000 0.000000 -0.000000 0.000000 0.000000 -0.000000 0.000000 0.000000 0.000000 0.000000 0.000000 0.000000 0.000000 0.000000 -0.000000 0.000000 0.000000 -0.000000 0.000000 0.000000 -0.000000 0.000000 0.000000 -0.000000 0.000000 0.000000 0.000000 0.000000 0.000000 0.000000 0.000000 0.000000 0.000000 0.000000 -34.077770 -0.000000 0.000000 0.000000 -0.000000 0.000000 0.000000 0.000000 0.000000 0.000000 0.000000 0.000000 -34.077770 -0.000000 0.000000 0.000000 -0.000000 0.000000 0.000000 0.000000 0.000000 0.000000
56.065399 81.701887 304.962560 0.141256 -0.014044 33.781785 -0.109598 0.090215 -33.781681 -0.000000 0.000000 0.000000 -0.000000 0.000000 0.000000 0.000000 0.000000 0.000000 -0.000000 0.000000 0.000000 -0.000000 0.000000 0.000000 -0.000000 0.000000 0.000000 -0.000000 0.000000 0.000000 0.000000 0.000000 0.000000 0.000000 0.000000 0.000000 -0.000000 0.000000 0.000000 -0.000000 0.000000 0.000000 -0.477365 0.835638 -0.091146 0.478745 -0.834848 0.098115 0.000000 0.000000 0.000000 0.000000 0.000000 0.000000 -0.109598 0.090215 -33.781681 -0.783915 2.099091 0.458568 7.359015 -10.436590 -2.199213 0.000000 0.000000 0.000000 -0.109598 0.090215 -33.781681 -0.000000 0.000000 0.000000 -0.975083 0.185166 0.256544 0.000000 0.000000 0.000000
56.112391 81.767955 304.839871 0.265980 -0.015702 33.462386 -0.213236 0.159757 -33.462052 -1.033159 -0.049865 -0.097429 -0.285315 -0.406660 0.540739 0.000000 0.000000 0.000000 -0.066457 0.231231 0.249268 1.098743 -0.184357 -0.148273 -0.000000 0.000000 0.000000 -0.000000 0.000000 0.000000 0.000000 0.000000 0.000000 0.000000 0.000000 0.000000 1.033073 0.051614 0.096514 -0.000000 0.000000 0.000000 -0.767913 1.455029 -0.149097 0.214279 -0.691809 -0.795028 0.000000 0.000000 0.000000 0.000000 0.000000 0.000000 -0.271514 -0.859612 -33.766883 -2.125616 4.991837 1.257208 14.368539 -20.475053 -2.736124 0.000000 0.000000 0.000000 -0.213236 0.159757 -33.462052 -0.000000 0.000000 0.000000 -1.861488 0.384987 0.459464 0.000000 0.000000 0.000000
56.154248 81.831087 304.718536 0.373964 -0.004886 33.119119 -0.310540 0.208418 -33.118538 -1.452619 -0.041472 -0.134590 -0.430848 -0.635338 0.758066 0.000000 0.000000 0.000000 -0.083975 0.317679 0.349432 1.418603 -1.354942 -0.327378 0.110102 1.073527 0.117390 -0.000000 0.000000 0.000000 0.000000 0.000000 0.000000 0.000000 0.000000 0.000000 1.452518 0.044871 0.133495 -0.000000 0.000000 0.000000 -0.873866 1.860404 -0.178767 0.287606 -0.660226 -1.180959 0.000000 0.000000 0.000000 0.000000 0.000000 0.000000 -0.442154 -1.209746 -33.557535 -3.085783 7.191976 1.865270 20.891718 -29.086988 -1.756780 0.000000 0.000000 0.000000 -0.310540 0.208418 -33.118538 -0.000000 0.000000 0.000000 -2.659453 0.600869 0.609173 0.000000 0.000000 0.000000
56.190969 81.891283 304.598555 0.465024 0.018473 32.751735 -0.401091 0.236040 -32.750984 -1.805413 -0.010809 -0.163524 -0.578239 -0.879139 0.939128 0.000000 0.000000 0.000000 -0.092816 0.384964 0.432529 1.749787 -1.721320 -0.404395 0.136192 1.339195 0.143682 -0.000000 0.000000 0.000000 0.000000 0.000000 0.000000 0.000000 0.000000 0.000000 1.805375 0.015956 0.163103 -0.000000 0.000000 0.000000 -0.795749 2.052824 -0.182777 0.346481 -0.377658 -1.559307 0.000000 0.000000 0.000000 0.000000 0.000000 0.000000 -0.636097 -1.507342 -33.312139 -3.910849 9.043228 2.406983 26.726167 -35.697235 0.311035 0.000000 0.000000 0.000000 -0.401091 0.236040 -32.750984 -0.000000 0.000000 0.000000 -3.369427 0.833969 0.706120 0.000000 0.000000 0.000000
56.222553 81.948544 304.479927 0.539001 0.054426 32.360200 -0.484428 0.242520 -32.359431 -2.090434 0.042094 -0.183973 -0.727591 -1.136830 1.083562 0.000000 0.000000 0.000000 -0.094059 0.433323 0.498149 2.010820 -2.044764 -0.465463 0.157114 1.558747 0.163675 -0.000000 0.000000 0.000000 0.000000 0.000000 0.000000 0.000000 0.000000 0.000000 1.336117 0.266607 0.166912 0.753569 -0.304136 0.021997 -0.532360 2.031918 -0.161488 0.397660 0.157974 -1.932619 0.000000 0.000000 0.000000 0.000000 0.000000 0.000000 -0.853593 -1.752987 -33.030819 -4.542340 10.437095 2.835676 31.533920 -40.152766 2.866396 0.000000 0.000000 0.000000 -0.484428 0.242520 -32.359431 0.651940 -0.602003 -0.066166 -4.647051 1.679866 0.865491 0.000000 0.000000 0.000000
56.251368 81.978709 304.353930 0.585836 0.107568 31.966768 -0.553948 0.218901 -31.966260 -2.259579 0.166124 -0.186621 -0.877184 -1.320744 1.206743 0.000000 0.000000 0.000000 -0.307948 0.410960 0.558619 2.394311 -2.100743 -0.518645 0.154607 1.508009 0.166006 -0.000000 0.000000 0.000000 0.000000 0.000000 0.000000 0.000000 0.000000 0.000000 1.443876 0.287953 0.137531 0.031219 -0.678256 -0.006847 0.537242 2.165144 -0.075714 0.868142 0.985373 -2.332121 0.000000 0.000000 0.000000 0.000000 0.000000 0.000000 -1.204192 -1.911087 -32.752543 -4.601818 10.983113 3.034153 32.296801 -41.054244 2.672592 0.000000 0.000000 0.000000 -0.553948 0.218901 -31.966260 0.842169 -0.710456 -0.071526 -5.375944 2.255894 0.705555 0.000000 0.000000 0.000000
56.274711 82.009374 304.226078 0.615683 0.173994 31.459022 -1.418745 0.402029 -31.489068 -1.619333 0.501712 -0.147601 -1.080792 -1.533705 1.337237 0.000000 0.000000 0.000000 0.118078 0.565627 0.550032 2.088825 -2.904212 -0.507506 0.191420 2.047622 0.171505 -0.000000 0.000000 0.000000 0.000000 0.000000 0.000000 0.000000 0.000000 0.000000 1.465590 0.390301 0.096252 0.957608 -0.662937 0.111467 0.721125 1.428028 -0.025628 0.651255 2.013830 -2.660666 0.000000 0.000000 0.000000 0.000000 0.000000 0.000000 -1.548607 -1.970520 -32.325530 -4.091260 10.267026 2.834587 30.334182 -38.031669 3.648827 0.000000 0.000000 0.000000 -0.615991 0.172901 -31.459028 1.029168 -0.818213 -0.076654 -5.879313 2.573224 0.679284 0.000000 0.000000 0.000000
